<svg width="1920" height="1080" viewBox="0 0 1920 1080" xmlns="http://www.w3.org/2000/svg">
  <defs>
    <linearGradient id="adminGradient" x1="0%" y1="0%" x2="100%" y2="100%">
      <stop offset="0%" style="stop-color:#1e3c72;stop-opacity:1" />
      <stop offset="50%" style="stop-color:#2a5298;stop-opacity:1" />
      <stop offset="100%" style="stop-color:#34495e;stop-opacity:1" />
    </linearGradient>
    <radialGradient id="adminCircle" cx="50%" cy="50%" r="50%">
      <stop offset="0%" style="stop-color:#ffffff;stop-opacity:0.1" />
      <stop offset="100%" style="stop-color:#ffffff;stop-opacity:0" />
    </radialGradient>
  </defs>
  
  <!-- 背景渐变 -->
  <rect width="100%" height="100%" fill="url(#adminGradient)"/>
  
  <!-- 管理网格背景 -->
  <defs>
    <pattern id="adminGrid" width="40" height="40" patternUnits="userSpaceOnUse">
      <path d="M 40 0 L 0 0 0 40" fill="none" stroke="rgba(255,255,255,0.03)" stroke-width="1"/>
    </pattern>
  </defs>
  <rect width="100%" height="100%" fill="url(#adminGrid)"/>
  
  <!-- 管理仪表盘装饰 -->
  <g transform="translate(200, 200)" opacity="0.15">
    <!-- 齿轮图标 -->
    <g>
      <circle cx="50" cy="50" r="35" fill="none" stroke="white" stroke-width="3"/>
      <circle cx="50" cy="50" r="20" fill="none" stroke="white" stroke-width="2"/>
      <rect x="45" y="10" width="10" height="15" fill="white"/>
      <rect x="45" y="75" width="10" height="15" fill="white"/>
      <rect x="10" y="45" width="15" height="10" fill="white"/>
      <rect x="75" y="45" width="15" height="10" fill="white"/>
      <rect x="25" y="25" width="10" height="10" fill="white" transform="rotate(45 30 30)"/>
      <rect x="65" y="25" width="10" height="10" fill="white" transform="rotate(45 70 30)"/>
      <rect x="25" y="65" width="10" height="10" fill="white" transform="rotate(45 30 70)"/>
      <rect x="65" y="65" width="10" height="10" fill="white" transform="rotate(45 70 70)"/>
      <animateTransform attributeName="transform" type="rotate" values="0 50 50; 360 50 50" dur="20s" repeatCount="indefinite"/>
    </g>
  </g>
  
  <!-- 用户管理图标 -->
  <g transform="translate(1600, 300)" opacity="0.12">
    <circle cx="30" cy="25" r="12" fill="white"/>
    <path d="M10,55 Q30,45 50,55 L50,65 L10,65 Z" fill="white"/>
    <circle cx="70" cy="25" r="12" fill="white"/>
    <path d="M50,55 Q70,45 90,55 L90,65 L50,65 Z" fill="white"/>
    <circle cx="110" cy="25" r="12" fill="white"/>
    <path d="M90,55 Q110,45 130,55 L130,65 L90,65 Z" fill="white"/>
  </g>
  
  <!-- 数据统计图表 -->
  <g transform="translate(1400, 600)" opacity="0.1">
    <rect x="0" y="80" width="15" height="20" fill="white">
      <animate attributeName="height" values="20;60;20" dur="3s" repeatCount="indefinite"/>
      <animate attributeName="y" values="80;40;80" dur="3s" repeatCount="indefinite"/>
    </rect>
    <rect x="20" y="60" width="15" height="40" fill="white">
      <animate attributeName="height" values="40;80;40" dur="3.5s" repeatCount="indefinite"/>
      <animate attributeName="y" values="60;20;60" dur="3.5s" repeatCount="indefinite"/>
    </rect>
    <rect x="40" y="70" width="15" height="30" fill="white">
      <animate attributeName="height" values="30;70;30" dur="4s" repeatCount="indefinite"/>
      <animate attributeName="y" values="70;30;70" dur="4s" repeatCount="indefinite"/>
    </rect>
    <rect x="60" y="50" width="15" height="50" fill="white">
      <animate attributeName="height" values="50;90;50" dur="2.5s" repeatCount="indefinite"/>
      <animate attributeName="y" values="50;10;50" dur="2.5s" repeatCount="indefinite"/>
    </rect>
  </g>
  
  <!-- 系统监控装饰 -->
  <g transform="translate(300, 700)" opacity="0.08">
    <rect x="0" y="0" width="200" height="120" rx="10" fill="white"/>
    <rect x="10" y="10" width="180" height="20" rx="5" fill="rgba(0,0,0,0.1)"/>
    <circle cx="20" cy="50" r="5" fill="#27ae60">
      <animate attributeName="fill" values="#27ae60;#e74c3c;#27ae60" dur="2s" repeatCount="indefinite"/>
    </circle>
    <rect x="35" y="45" width="100" height="10" rx="5" fill="rgba(0,0,0,0.1)"/>
    <circle cx="20" cy="70" r="5" fill="#f39c12">
      <animate attributeName="fill" values="#f39c12;#27ae60;#f39c12" dur="3s" repeatCount="indefinite"/>
    </circle>
    <rect x="35" y="65" width="80" height="10" rx="5" fill="rgba(0,0,0,0.1)"/>
    <circle cx="20" cy="90" r="5" fill="#3498db">
      <animate attributeName="fill" values="#3498db;#f39c12;#3498db" dur="4s" repeatCount="indefinite"/>
    </circle>
    <rect x="35" y="85" width="120" height="10" rx="5" fill="rgba(0,0,0,0.1)"/>
  </g>
  
  <!-- 安全锁图标 -->
  <g transform="translate(800, 150)" opacity="0.1">
    <rect x="20" y="30" width="40" height="50" rx="5" fill="white"/>
    <path d="M30,30 L30,20 Q30,10 40,10 Q50,10 50,20 L50,30" fill="none" stroke="white" stroke-width="3"/>
    <circle cx="40" cy="50" r="5" fill="rgba(0,0,0,0.3)"/>
    <rect x="37" y="55" width="6" height="15" fill="rgba(0,0,0,0.3)"/>
  </g>
  
  <!-- 动态连接线 -->
  <g opacity="0.05">
    <path d="M100,400 Q500,200 900,400 T1700,400" stroke="white" stroke-width="2" fill="none">
      <animate attributeName="stroke-dasharray" values="0,1000;1000,0;0,1000" dur="8s" repeatCount="indefinite"/>
    </path>
    <path d="M200,500 Q600,300 1000,500 T1800,500" stroke="white" stroke-width="1" fill="none">
      <animate attributeName="stroke-dasharray" values="0,1200;1200,0;0,1200" dur="10s" repeatCount="indefinite"/>
    </path>
  </g>
  
  <!-- 管理权限装饰 -->
  <circle cx="960" cy="540" r="150" fill="url(#adminCircle)">
    <animate attributeName="r" values="150;250;150" dur="12s" repeatCount="indefinite"/>
    <animate attributeName="opacity" values="0.2;0.05;0.2" dur="12s" repeatCount="indefinite"/>
  </circle>
</svg>