<svg width="1920" height="1080" viewBox="0 0 1920 1080" xmlns="http://www.w3.org/2000/svg">
  <defs>
    <linearGradient id="bgGradient" x1="0%" y1="0%" x2="100%" y2="100%">
      <stop offset="0%" style="stop-color:#667eea;stop-opacity:1" />
      <stop offset="100%" style="stop-color:#764ba2;stop-opacity:1" />
    </linearGradient>
    <radialGradient id="circleGradient" cx="50%" cy="50%" r="50%">
      <stop offset="0%" style="stop-color:#ffffff;stop-opacity:0.1" />
      <stop offset="100%" style="stop-color:#ffffff;stop-opacity:0" />
    </radialGradient>
  </defs>
  
  <!-- 背景渐变 -->
  <rect width="100%" height="100%" fill="url(#bgGradient)"/>
  
  <!-- 动态圆形装饰 -->
  <circle cx="200" cy="200" r="100" fill="url(#circleGradient)">
    <animateTransform attributeName="transform" type="translate" values="0,0; 50,30; 0,0" dur="8s" repeatCount="indefinite"/>
  </circle>
  
  <circle cx="1600" cy="300" r="150" fill="url(#circleGradient)">
    <animateTransform attributeName="transform" type="translate" values="0,0; -30,50; 0,0" dur="10s" repeatCount="indefinite"/>
  </circle>
  
  <circle cx="800" cy="800" r="80" fill="url(#circleGradient)">
    <animateTransform attributeName="transform" type="translate" values="0,0; 40,-20; 0,0" dur="6s" repeatCount="indefinite"/>
  </circle>
  
  <!-- 健身图标装饰 -->
  <g transform="translate(100, 600)" opacity="0.1">
    <!-- 哑铃图标 -->
    <rect x="0" y="15" width="60" height="10" rx="5" fill="white"/>
    <circle cx="0" cy="20" r="15" fill="white"/>
    <circle cx="60" cy="20" r="15" fill="white"/>
    <animateTransform attributeName="transform" type="rotate" values="0 30 20; 15 30 20; 0 30 20" dur="4s" repeatCount="indefinite"/>
  </g>
  
  <g transform="translate(1700, 700)" opacity="0.1">
    <!-- 跑步人形图标 -->
    <circle cx="20" cy="10" r="8" fill="white"/>
    <path d="M20 18 L20 50 M20 30 L10 25 M20 30 L30 35 M20 50 L10 65 M20 50 L30 65" stroke="white" stroke-width="3" fill="none"/>
    <animateTransform attributeName="transform" type="translate" values="0,0; 10,0; 0,0" dur="2s" repeatCount="indefinite"/>
  </g>
  
  <!-- 波浪装饰 -->
  <path d="M0,400 Q480,350 960,400 T1920,400 L1920,1080 L0,1080 Z" fill="rgba(255,255,255,0.05)">
    <animate attributeName="d" values="M0,400 Q480,350 960,400 T1920,400 L1920,1080 L0,1080 Z; M0,420 Q480,370 960,420 T1920,420 L1920,1080 L0,1080 Z; M0,400 Q480,350 960,400 T1920,400 L1920,1080 L0,1080 Z" dur="8s" repeatCount="indefinite"/>
  </path>
</svg>